<svg width="48" height="48" viewBox="0 0 48 48" fill="none" xmlns="http://www.w3.org/2000/svg">
  <!-- Aqua Logo: Cyan blocks design -->
  <rect x="10" y="10" width="8" height="8" fill="#00CED1" rx="1"/>
  <rect x="20" y="10" width="8" height="8" fill="#40E0D0" rx="1"/>
  <rect x="30" y="10" width="8" height="8" fill="#00CED1" rx="1"/>
  
  <rect x="10" y="20" width="8" height="8" fill="#40E0D0" rx="1"/>
  <rect x="20" y="20" width="8" height="8" fill="#48D1CC" rx="1"/>
  <rect x="30" y="20" width="8" height="8" fill="#40E0D0" rx="1"/>
  
  <rect x="10" y="30" width="8" height="8" fill="#00CED1" rx="1"/>
  <rect x="20" y="30" width="8" height="8" fill="#40E0D0" rx="1"/>
  <rect x="30" y="30" width="8" height="8" fill="#00CED1" rx="1"/>
  
  <!-- Cyan gradient effect -->
  <defs>
    <linearGradient id="aquaGradient" x1="0%" y1="0%" x2="100%" y2="100%">
      <stop offset="0%" style="stop-color:#00FFFF;stop-opacity:1" />
      <stop offset="50%" style="stop-color:#40E0D0;stop-opacity:1" />
      <stop offset="100%" style="stop-color:#008B8B;stop-opacity:1" />
    </linearGradient>
  </defs>
  
  <!-- Apply gradient to alternate blocks for pixelated effect -->
  <rect x="10" y="10" width="8" height="8" fill="url(#aquaGradient)" rx="1"/>
  <rect x="30" y="10" width="8" height="8" fill="url(#aquaGradient)" rx="1"/>
  <rect x="20" y="20" width="8" height="8" fill="url(#aquaGradient)" rx="1"/>
  <rect x="10" y="30" width="8" height="8" fill="url(#aquaGradient)" rx="1"/>
  <rect x="30" y="30" width="8" height="8" fill="url(#aquaGradient)" rx="1"/>
</svg>