<svg width="32" height="32" viewBox="0 0 32 32" xmlns="http://www.w3.org/2000/svg">
  <!-- Pixel art circle design -->
  <rect x="10" y="4" width="12" height="2" fill="white"/>
  <rect x="8" y="6" width="16" height="2" fill="white"/>
  <rect x="6" y="8" width="20" height="2" fill="white"/>
  <rect x="4" y="10" width="24" height="2" fill="white"/>
  <rect x="4" y="12" width="24" height="2" fill="white"/>
  <rect x="4" y="14" width="24" height="2" fill="white"/>
  <rect x="4" y="16" width="24" height="2" fill="white"/>
  <rect x="4" y="18" width="24" height="2" fill="white"/>
  <rect x="4" y="20" width="24" height="2" fill="white"/>
  <rect x="6" y="22" width="20" height="2" fill="white"/>
  <rect x="8" y="24" width="16" height="2" fill="white"/>
  <rect x="10" y="26" width="12" height="2" fill="white"/>
  <!-- Inner circle -->
  <rect x="12" y="10" width="8" height="2" fill="black"/>
  <rect x="10" y="12" width="12" height="2" fill="black"/>
  <rect x="10" y="14" width="12" height="2" fill="black"/>
  <rect x="10" y="16" width="12" height="2" fill="black"/>
  <rect x="10" y="18" width="12" height="2" fill="black"/>
  <rect x="12" y="20" width="8" height="2" fill="black"/>
</svg>