<svg width="32" height="32" viewBox="0 0 32 32" xmlns="http://www.w3.org/2000/svg">
  <!-- Pixel art letter A -->
  <rect x="12" y="2" width="8" height="2" fill="white"/>
  <rect x="10" y="4" width="2" height="2" fill="white"/>
  <rect x="20" y="4" width="2" height="2" fill="white"/>
  <rect x="8" y="6" width="2" height="2" fill="white"/>
  <rect x="22" y="6" width="2" height="2" fill="white"/>
  <rect x="8" y="8" width="2" height="2" fill="white"/>
  <rect x="22" y="8" width="2" height="2" fill="white"/>
  <rect x="8" y="10" width="16" height="2" fill="white"/>
  <rect x="8" y="12" width="2" height="2" fill="white"/>
  <rect x="22" y="12" width="2" height="2" fill="white"/>
  <rect x="8" y="14" width="2" height="2" fill="white"/>
  <rect x="22" y="14" width="2" height="2" fill="white"/>
  <rect x="6" y="16" width="2" height="2" fill="white"/>
  <rect x="24" y="16" width="2" height="2" fill="white"/>
  <rect x="6" y="18" width="2" height="2" fill="white"/>
  <rect x="24" y="18" width="2" height="2" fill="white"/>
  <rect x="6" y="20" width="2" height="2" fill="white"/>
  <rect x="24" y="20" width="2" height="2" fill="white"/>
  <rect x="4" y="22" width="2" height="2" fill="white"/>
  <rect x="26" y="22" width="2" height="2" fill="white"/>
  <rect x="4" y="24" width="2" height="2" fill="white"/>
  <rect x="26" y="24" width="2" height="2" fill="white"/>
  <rect x="4" y="26" width="2" height="2" fill="white"/>
  <rect x="26" y="26" width="2" height="2" fill="white"/>
  <rect x="4" y="28" width="2" height="2" fill="white"/>
  <rect x="26" y="28" width="2" height="2" fill="white"/>
</svg>